<svg width="18" height="18" viewBox="0 0 18 18" fill="none" xmlns="http://www.w3.org/2000/svg">
<path d="M5.5124 7.49915C5.5124 7.12635 5.8146 6.82415 6.1874 6.82415H11.8124C12.1852 6.82415 12.4874 7.12635 12.4874 7.49915C12.4874 7.87194 12.1852 8.17415 11.8124 8.17415H6.1874C5.8146 8.17415 5.5124 7.87194 5.5124 7.49915Z" fill="#37383C" fill-opacity="0.61"/>
<path d="M5.5124 10.4991C5.5124 10.1264 5.8146 9.82415 6.1874 9.82415H9.56239C9.93518 9.82415 10.2374 10.1264 10.2374 10.4991C10.2374 10.8719 9.93518 11.1741 9.56239 11.1741H6.1874C5.8146 11.1741 5.5124 10.8719 5.5124 10.4991Z" fill="#37383C" fill-opacity="0.61"/>
<path fill-rule="evenodd" clip-rule="evenodd" d="M9.00014 1.76172C5.00299 1.76172 1.76266 5.00206 1.76266 8.99922C1.76266 12.9964 5.00299 16.2367 9.00014 16.2367C10.1539 16.2367 11.2462 15.9663 12.2155 15.4849L13.5748 15.8556C13.8824 15.9395 14.1568 16.0144 14.3823 16.0542C14.6107 16.0945 14.9003 16.122 15.1895 16.0116C15.5684 15.8669 15.8678 15.5676 16.0125 15.1886C16.1229 14.8994 16.0954 14.6098 16.0551 14.3814C16.0153 14.156 15.9404 13.8816 15.8565 13.574L15.4858 12.2146C15.9672 11.2453 16.2376 10.153 16.2376 8.99922C16.2376 5.00206 12.9973 1.76172 9.00014 1.76172ZM3.1127 8.99929C3.1127 5.74771 5.74862 3.11179 9.00018 3.11179C12.2517 3.11179 14.8877 5.74771 14.8877 8.99929C14.8877 10.0202 14.6284 10.9786 14.1725 11.8142C14.089 11.9673 14.068 12.1468 14.1139 12.3151L14.7536 14.6606C14.7588 14.6798 14.7572 14.6916 14.7549 14.6998C14.7519 14.7101 14.7454 14.7223 14.7343 14.7334C14.7231 14.7445 14.711 14.7511 14.7007 14.754C14.6924 14.7563 14.6807 14.758 14.6615 14.7527L12.3159 14.113C12.1477 14.0671 11.9682 14.0882 11.8151 14.1717C10.9795 14.6275 10.0211 14.8868 9.00018 14.8868C5.74862 14.8868 3.1127 12.2509 3.1127 8.99929Z" fill="#37383C" fill-opacity="0.61"/>
</svg>
