<svg width="36" height="36" viewBox="0 0 36 36" fill="none" xmlns="http://www.w3.org/2000/svg">
<path fill-rule="evenodd" clip-rule="evenodd" d="M18.8047 18.4978C18.8047 25.8411 16.2792 31.5923 10.9022 31.5923C5.5253 31.5923 2.99981 25.8411 2.99981 18.4978C2.99981 11.1546 5.5253 5 10.9022 5C16.2792 5 18.8047 11.1546 18.8047 18.4978Z" fill="white"/>
<path d="M4.25 18.498C4.25 14.9419 4.86571 11.7923 6.03906 9.58105C7.19017 7.41175 8.79947 6.25 10.9023 6.25C13.0052 6.25003 14.6145 7.41173 15.7656 9.58105C16.939 11.7923 17.5547 14.9419 17.5547 18.498C17.5547 22.0549 16.9387 25.0926 15.7764 27.1934C14.6446 29.2388 13.044 30.3427 10.9023 30.3428C8.76064 30.3428 7.16015 29.2388 6.02832 27.1934C4.86598 25.0926 4.25002 22.055 4.25 18.498ZM1.75 18.498C1.75002 22.2841 2.39631 25.7937 3.84082 28.4043C5.31598 31.0702 7.66716 32.8428 10.9023 32.8428C14.1375 32.8427 16.4887 31.0702 17.9639 28.4043C19.4084 25.7937 20.0547 22.2841 20.0547 18.498C20.0547 14.7109 19.4073 11.111 17.9736 8.40918C16.5178 5.66562 14.1762 3.75004 10.9023 3.75C7.6283 3.75 5.28595 5.66546 3.83008 8.40918C2.39648 11.111 1.75 14.7109 1.75 18.498Z" fill="#010101"/>
<path fill-rule="evenodd" clip-rule="evenodd" d="M11.5273 16.9775C11.5273 21.1687 9.98263 24.5664 7.51341 24.5664C5.04418 24.5664 3.49947 21.1687 3.49947 16.9775C3.49947 12.7863 5.04418 9.38867 7.51341 9.38867C9.98263 9.38867 11.5273 12.7863 11.5273 16.9775Z" fill="#010101"/>
<path d="M4.10891 11.9691C4.04959 12.9371 4.3145 13.7411 5.0657 13.7871C5.81691 13.8331 6.178 13.0675 6.23732 12.0995C6.29664 11.1314 6.09433 10.3313 5.28052 10.2815C4.46672 10.2316 4.16823 11.001 4.10891 11.9691Z" fill="white"/>
<path fill-rule="evenodd" clip-rule="evenodd" d="M34.1069 18.4978C34.1069 25.8411 31.5814 31.5923 26.2045 31.5923C20.8275 31.5923 18.3021 25.8411 18.3021 18.4978C18.3021 11.1546 20.8275 5 26.2045 5C31.5814 5 34.1069 11.1546 34.1069 18.4978Z" fill="white"/>
<path d="M19.5522 18.498C19.5522 14.9419 20.168 11.7923 21.3413 9.58105C22.4924 7.41175 24.1017 6.25 26.2046 6.25C28.3074 6.25003 29.9168 7.41173 31.0679 9.58105C32.2412 11.7923 32.8569 14.9419 32.8569 18.498C32.8569 22.0549 32.2409 25.0926 31.0786 27.1934C29.9468 29.2388 28.3462 30.3427 26.2046 30.3428C24.0629 30.3428 22.4624 29.2388 21.3306 27.1934C20.1682 25.0926 19.5523 22.055 19.5522 18.498ZM17.0522 18.498C17.0523 22.2841 17.6986 25.7937 19.1431 28.4043C20.6182 31.0702 22.9694 32.8428 26.2046 32.8428C29.4398 32.8427 31.791 31.0702 33.2661 28.4043C34.7106 25.7937 35.3569 22.2841 35.3569 18.498C35.3569 14.7109 34.7095 11.111 33.2759 8.40918C31.82 5.66562 29.4785 3.75004 26.2046 3.75C22.9305 3.75 20.5882 5.66546 19.1323 8.40918C17.6987 11.111 17.0522 14.7109 17.0522 18.498Z" fill="#010101"/>
<path fill-rule="evenodd" clip-rule="evenodd" d="M26.832 16.9775C26.832 21.1687 25.2873 24.5664 22.8181 24.5664C20.3489 24.5664 18.8042 21.1687 18.8042 16.9775C18.8042 12.7863 20.3489 9.38867 22.8181 9.38867C25.2873 9.38867 26.832 12.7863 26.832 16.9775Z" fill="#010101"/>
<path d="M19.4136 11.9691C19.3543 12.9371 19.6192 13.7411 20.3704 13.7871C21.1216 13.8331 21.4827 13.0675 21.542 12.0995C21.6013 11.1314 21.399 10.3313 20.5852 10.2815C19.7714 10.2316 19.4729 11.001 19.4136 11.9691Z" fill="white"/>
</svg>
