<svg width="18" height="18" viewBox="0 0 18 18" fill="none" xmlns="http://www.w3.org/2000/svg">
<path d="M6.37453 11.3248C6.37453 12.7498 7.53703 13.8748 8.99952 13.8748C10.462 13.8748 11.6245 12.7498 11.6245 11.3248C11.6245 9.89979 10.462 8.77479 8.99952 7.49979C7.53703 8.77479 6.37453 9.89979 6.37453 11.3248Z" fill="#37383C" fill-opacity="0.61"/>
<path fill-rule="evenodd" clip-rule="evenodd" d="M10.6981 1.37345C10.1288 0.849455 9.23294 0.979388 8.82478 1.62224L6.60762 5.11428L6.08293 4.64206C5.61577 4.22162 4.86562 4.20006 4.39446 4.69657C2.97058 6.19707 2.13702 8.15592 2.13702 10.2001C2.13702 12.0976 2.84152 13.7582 4.0739 14.943C5.30471 16.1262 7.02508 16.8001 8.9995 16.8001C12.9959 16.8001 15.862 13.8866 15.862 10.2001C15.862 7.07803 13.8676 4.29052 10.6981 1.37345ZM7.31935 6.51191L9.88933 2.46419C12.9437 5.29701 14.512 7.71295 14.512 10.2001C14.512 13.1136 12.2781 15.4501 8.9995 15.4501C7.33644 15.4501 5.96306 14.8865 5.00951 13.9698C4.05752 13.0545 3.48702 11.7526 3.48702 10.2001C3.48702 8.57269 4.13307 6.98413 5.27541 5.73153L6.29796 6.65183C6.44561 6.78472 6.64431 6.84582 6.84112 6.81886C7.03793 6.7919 7.21287 6.67961 7.31935 6.51191Z" fill="#37383C" fill-opacity="0.61"/>
</svg>
